<?xml version="1.0" encoding="utf-8"?>
<!-- Generator: Adobe Illustrator 16.0.0, SVG Export Plug-In . SVG Version: 6.00 Build 0)  -->
<!DOCTYPE svg PUBLIC "-//W3C//DTD SVG 1.1//EN" "http://www.w3.org/Graphics/SVG/1.1/DTD/svg11.dtd">
<svg version="1.1" id="Layer_1" xmlns="http://www.w3.org/2000/svg" xmlns:xlink="http://www.w3.org/1999/xlink" x="0px" y="0px"
	 width="18.261px" height="24.999px" viewBox="10.828 3.482 18.261 24.999" enable-background="new 10.828 3.482 18.261 24.999"
	 xml:space="preserve">
<g>
	<path fill="#333333" d="M26.88,13.184c-0.608,0-1.12,0.48-1.12,1.056v0.416c0-1.184-0.992-2.144-2.24-2.144
		c-0.607,0-1.119,0.48-1.119,1.056v0.416c0-1.184-0.992-2.144-2.24-2.144c-0.608,0-1.12,0.48-1.12,1.056v0.416l-0.032-0.448
		l-0.352-5.472c-0.064-0.736-0.672-1.312-1.408-1.312s-1.312,0.608-1.312,1.312v5.28v6.592l-1.184-1.792
		c-0.8-1.216-2.304-1.728-3.616-1.088c-0.32,0.16-0.384,0.512-0.224,0.832l1.632,4.192c0.256,0.672,0.928,1.6,1.44,2.08
		c0,0,3.264,2.688,3.264,3.712v1.28h5.279h2.625h1.279V27.2c0-1.024,1.984-4.192,1.984-4.192c0.384-0.607,0.672-1.729,0.672-2.432
		v-5.248C29.12,14.144,28.128,13.184,26.88,13.184z"/>
	<path fill="#333333" d="M14.816,10.4c-2.016-2.144-0.704-5.792,2.272-6.08c3.296-0.352,5.12,3.456,3.136,5.984
		c-0.32,0.416,0.256,0.96,0.576,0.576c2.336-2.976,0.513-7.584-3.52-7.392c-3.808,0.16-5.568,4.768-3.04,7.456
		C14.592,11.328,15.168,10.752,14.816,10.4z"/>
</g>
</svg>
