<?xml version="1.0" encoding="utf-8"?>
<!-- Generator: Adobe Illustrator 18.1.0, SVG Export Plug-In . SVG Version: 6.00 Build 0)  -->
<svg version="1.1" id="Layer_1" xmlns="http://www.w3.org/2000/svg" xmlns:xlink="http://www.w3.org/1999/xlink" x="0px" y="0px"
	 viewBox="0 0 502.2 64" enable-background="new 0 0 502.2 64" xml:space="preserve">
<g>
	<g>
		<path fill="#FFFFFF" d="M65.6,59.9h18.2l9.8-56.1H75.4l-3.6,20.1H56l3.6-20.1H41.3l-9.8,56.1h18.2l3.7-21h15.8L65.6,59.9z"/>
	</g>
	<g>
		<path fill="#FFFFFF" d="M104.1,3.8L98.5,35c-0.5,2.5-0.7,4.8-0.7,7c0,16.6,14.5,19,23.1,19c18.2,0,26-6.1,28.9-22.3l6.1-34.9
			h-18.3l-5.2,29.3c-1.7,9.2-2.8,13.9-9.7,13.9c-4.4,0-6.6-2.4-6.6-7.2c0-1.8,0.3-4.1,0.8-7l5.3-29H104.1z"/>
	</g>
	<g>
		<path fill="#FFFFFF" d="M252.5,59.9h18.3l2.6-14.4h8.6c15.9,0,24.7-8.6,24.7-24.3c0-11-7.7-17.3-21-17.3h-23.3L252.5,59.9z
			 M280.9,31.6h-5.3l2.4-13.2h4.9c4,0,6.2,2,6.2,5.7C289.2,28.8,286,31.6,280.9,31.6z"/>
	</g>
	<g>
		<path fill="#FFFFFF" d="M342.1,2.6c-19.9,0-31.8,12.9-31.8,34.4c0,15,9.5,24,25.3,24c19.9,0,31.8-12.9,31.8-34.4
			C367.4,11.6,358,2.6,342.1,2.6z M336.8,46.5c-4.7,0-7.5-3.4-7.5-9.1c0-2.2,0.2-4,0.6-6.2c1.4-7.3,3.7-14.1,11.2-14.1
			c4.7,0,7.5,3.4,7.5,9.1c0,2.2-0.2,4-0.6,6.2C346.5,39.8,344.2,46.5,336.8,46.5z"/>
	</g>
	<g>
		<path fill="#FFFFFF" d="M430.9,59.9h18.3l7.3-41h13.8l2.6-15h-46.7l-2.6,15h14.6L430.9,59.9z"/>
	</g>
	<path fill="#FFFFFF" d="M400.7,24.5c-5.8-1.8-8.1-2.6-8.1-5.3c0-1.8,1.2-3.9,4.6-3.9c2.6,0,4.7,1.5,5.6,3.6l16.1-4.3
		c-1.9-7.9-8.7-12-20.4-12c-22.1,0-23.8,14.8-23.8,19.3c0,9.2,4.9,14.8,15.4,17.7c2.8,0.7,6,1.6,6,4.7c0,2.5-1.8,3.9-4.9,3.9
		c-2.9,0-5.9-1.7-7-4.6L368.2,48c1.8,8.3,9.6,13.1,21.9,13.1c9.4,0,25.1-2.5,25.1-19.4C415.2,33.1,410.5,27.5,400.7,24.5z"/>
	<g>
		<path fill="#0DBE98" d="M21.4,59.9l9.8-56H1v56L21.4,59.9z"/>
	</g>
	<g>
		<path fill="#0DBE98" d="M480.6,3.8l-9.8,56l30.2,0v-56L480.6,3.8z"/>
	</g>
	<polygon fill="#FFFFFF" points="166.4,3.8 156.6,59.9 174.8,59.9 177.7,43.4 193.1,43.4 195.6,29.2 180.3,29.2 182,18.8 
		203.4,18.8 206.1,3.8 	"/>
	<polygon fill="#FFFFFF" points="214.3,3.8 204.5,59.9 222.7,59.9 225.6,43.4 241,43.4 243.5,29.2 228.2,29.2 229.9,18.8 
		251.4,18.8 254,3.8 	"/>
</g>
<g>
</g>
<g>
</g>
<g>
</g>
<g>
</g>
<g>
</g>
<g>
</g>
</svg>
