<?xml version="1.0" encoding="utf-8"?>
<!-- Generator: Adobe Illustrator 15.0.0, SVG Export Plug-In  -->
<!DOCTYPE svg PUBLIC "-//W3C//DTD SVG 1.1//EN" "http://www.w3.org/Graphics/SVG/1.1/DTD/svg11.dtd" [
	<!ENTITY ns_flows "http://ns.adobe.com/Flows/1.0/">
]>
<svg version="1.1"
	 xmlns="http://www.w3.org/2000/svg" xmlns:xlink="http://www.w3.org/1999/xlink" xmlns:a="http://ns.adobe.com/AdobeSVGViewerExtensions/3.0/"
	 x="0px" y="0px" width="329px" height="20px" viewBox="0 0 329 20" overflow="visible" enable-background="new 0 0 329 20"
	 xml:space="preserve">
<path fill="white" d="M10.108,15.201c0,2.94,0.056,3.36,1.68,3.5l0.896,0.084c0.168,0.112,0.112,0.616-0.056,0.7
	c-1.596-0.056-2.548-0.084-3.668-0.084c-1.12,0-2.1,0.028-3.892,0.084c-0.168-0.084-0.224-0.56,0-0.7l1.008-0.084
	c1.596-0.14,1.736-0.56,1.736-3.5V2.685c0-0.868,0-0.896-0.84-0.896h-1.54c-1.204,0-2.744,0.056-3.444,0.7
	c-0.672,0.616-0.952,1.232-1.26,1.932C0.504,4.589,0.112,4.449,0,4.225c0.448-1.26,0.868-3.052,1.064-4.172
	c0.084-0.056,0.448-0.084,0.532,0c0.168,0.896,1.092,0.868,2.38,0.868h11.34c1.512,0,1.764-0.056,2.184-0.784
	c0.14-0.056,0.448-0.028,0.504,0.084c-0.308,1.148-0.504,3.416-0.42,4.256c-0.112,0.224-0.588,0.224-0.728,0.056
	c-0.084-0.7-0.28-1.736-0.7-2.044c-0.644-0.476-1.708-0.7-3.248-0.7H10.92c-0.84,0-0.812,0.028-0.812,0.952V15.201z"/>
<path fill="white" d="M25.563,10.357c-1.344,0-1.4,0.056-1.4,0.896v3.948c0,2.94,0.14,3.332,1.708,3.5l0.812,0.084
	c0.168,0.112,0.112,0.616-0.056,0.7c-1.512-0.056-2.464-0.084-3.556-0.084c-1.204,0-2.156,0.056-3.248,0.084
	c-0.168-0.084-0.224-0.532-0.056-0.7l0.476-0.084c1.568-0.28,1.624-0.56,1.624-3.5V5.121c0-2.94-0.196-3.416-1.652-3.528
	l-0.728-0.056c-0.168-0.112-0.112-0.616,0.056-0.7c1.372,0.028,2.324,0.084,3.528,0.084c1.092,0,2.044-0.028,3.248-0.084
	c0.168,0.084,0.224,0.588,0.056,0.7l-0.532,0.056c-1.624,0.168-1.68,0.588-1.68,3.528v3.22c0,0.868,0.056,0.896,1.4,0.896h8.008
	c1.344,0,1.4-0.028,1.4-0.896v-3.22c0-2.94-0.056-3.36-1.708-3.528l-0.532-0.056c-0.168-0.112-0.112-0.616,0.056-0.7
	c1.288,0.056,2.24,0.084,3.388,0.084c1.092,0,2.044-0.028,3.304-0.084c0.168,0.084,0.224,0.588,0.056,0.7l-0.588,0.056
	c-1.624,0.168-1.68,0.588-1.68,3.528v10.08c0,2.94,0.056,3.304,1.68,3.5l0.672,0.084c0.168,0.112,0.112,0.616-0.056,0.7
	c-1.344-0.056-2.296-0.084-3.388-0.084c-1.148,0-2.156,0.028-3.388,0.084c-0.168-0.084-0.224-0.532-0.056-0.7l0.532-0.084
	c1.708-0.28,1.708-0.56,1.708-3.5v-3.948c0-0.84-0.056-0.896-1.4-0.896H25.563z"/>
<path fill="white" d="M44.436,5.121c0-2.912-0.056-3.332-1.708-3.528L42.28,1.537c-0.168-0.112-0.112-0.616,0.056-0.7
	c1.204,0.056,2.156,0.084,3.304,0.084h5.264c1.792,0,3.444,0,3.78-0.084c0.168,0.476,0.336,2.492,0.448,3.724
	c-0.112,0.168-0.56,0.224-0.7,0.056c-0.42-1.316-0.672-2.296-2.128-2.66c-0.588-0.14-1.484-0.168-2.716-0.168h-2.016
	c-0.84,0-0.84,0.056-0.84,1.12v5.6c0,0.784,0.084,0.784,0.924,0.784h1.624c1.176,0,2.044-0.056,2.38-0.168
	c0.336-0.112,0.532-0.28,0.672-0.98l0.224-1.148c0.14-0.168,0.616-0.168,0.728,0.028c0,0.672-0.112,1.764-0.112,2.828
	c0,1.008,0.112,2.072,0.112,2.688c-0.112,0.196-0.588,0.196-0.728,0.028l-0.252-1.092c-0.112-0.504-0.308-0.924-0.868-1.064
	c-0.392-0.112-1.064-0.14-2.156-0.14h-1.624c-0.84,0-0.924,0.028-0.924,0.756v3.948c0,1.484,0.084,2.436,0.532,2.912
	c0.336,0.336,0.924,0.644,3.388,0.644c2.156,0,2.968-0.112,3.584-0.42c0.504-0.28,1.26-1.26,1.988-2.716
	c0.196-0.14,0.588-0.056,0.7,0.196c-0.196,0.98-0.896,3.136-1.26,3.892c-2.52-0.056-5.012-0.084-7.504-0.084h-2.52
	c-1.204,0-2.156,0.028-3.808,0.084c-0.168-0.084-0.224-0.532-0.056-0.7l0.924-0.084c1.596-0.14,1.736-0.56,1.736-3.5V5.121z"/>
<path fill="white" d="M71.483,10.357c-1.344,0-1.4,0.056-1.4,0.896v3.948c0,2.94,0.14,3.332,1.708,3.5l0.812,0.084
	c0.168,0.112,0.112,0.616-0.056,0.7c-1.512-0.056-2.464-0.084-3.556-0.084c-1.204,0-2.156,0.056-3.248,0.084
	c-0.168-0.084-0.224-0.532-0.056-0.7l0.476-0.084c1.568-0.28,1.624-0.56,1.624-3.5V5.121c0-2.94-0.196-3.416-1.652-3.528
	l-0.728-0.056c-0.168-0.112-0.112-0.616,0.056-0.7c1.372,0.028,2.324,0.084,3.528,0.084c1.092,0,2.044-0.028,3.248-0.084
	c0.168,0.084,0.224,0.588,0.056,0.7l-0.532,0.056c-1.624,0.168-1.68,0.588-1.68,3.528v3.22c0,0.868,0.056,0.896,1.4,0.896h8.008
	c1.344,0,1.4-0.028,1.4-0.896v-3.22c0-2.94-0.056-3.36-1.708-3.528l-0.532-0.056c-0.168-0.112-0.112-0.616,0.056-0.7
	c1.288,0.056,2.24,0.084,3.388,0.084c1.092,0,2.044-0.028,3.304-0.084c0.168,0.084,0.224,0.588,0.056,0.7l-0.588,0.056
	c-1.624,0.168-1.68,0.588-1.68,3.528v10.08c0,2.94,0.056,3.304,1.68,3.5l0.672,0.084c0.168,0.112,0.112,0.616-0.056,0.7
	c-1.344-0.056-2.296-0.084-3.388-0.084c-1.148,0-2.156,0.028-3.388,0.084c-0.168-0.084-0.224-0.532-0.056-0.7l0.532-0.084
	c1.708-0.28,1.708-0.56,1.708-3.5v-3.948c0-0.84-0.056-0.896-1.4-0.896H71.483z"/>
<path fill="white" d="M103.711,7.949c0-1.736-0.056-4.956-0.532-5.796c-0.196-0.336-0.7-0.532-1.4-0.588l-0.7-0.056
	c-0.168-0.196-0.112-0.56,0.056-0.672c1.064,0.056,2.1,0.084,3.192,0.084c1.176,0,1.932-0.028,2.94-0.084
	c0.224,0.14,0.196,0.504,0.056,0.672l-0.672,0.056c-0.7,0.056-1.232,0.308-1.4,0.672c-0.392,0.924-0.392,4.144-0.392,5.712v3.164
	c0,2.436-0.392,5.012-1.96,6.692c-1.204,1.316-3.276,2.044-5.348,2.044c-1.932,0-3.864-0.364-5.236-1.54
	c-1.484-1.232-2.184-3.276-2.184-6.608V5.093c0-2.912-0.056-3.388-1.68-3.528l-0.7-0.056c-0.168-0.112-0.112-0.588,0.056-0.672
	c1.4,0.056,2.352,0.084,3.472,0.084c1.148,0,2.072-0.028,3.444-0.084c0.168,0.084,0.224,0.56,0.056,0.672l-0.672,0.056
	c-1.624,0.14-1.68,0.616-1.68,3.528v6.048c0,4.508,1.4,7.476,5.684,7.476c4.06,0,5.6-3.192,5.6-7.448V7.949z"/>
<path fill="white" d="M113.539,8.817c0,0.756,0.084,0.756,0.924,0.756h1.904c1.148,0,2.044-0.056,2.38-0.168c0.308-0.112,0.532-0.252,0.7-0.98
	l0.252-1.12c0.14-0.168,0.616-0.168,0.728,0c0,0.672-0.112,1.792-0.112,2.828c0,1.008,0.112,2.072,0.112,2.716
	c-0.112,0.168-0.532,0.168-0.728,0l-0.28-1.092c-0.14-0.504-0.364-0.896-0.896-1.064c-0.392-0.112-1.092-0.14-2.156-0.14h-1.904
	c-0.84,0-0.924,0.028-0.924,0.756v3.892c0,2.94,0.056,3.36,1.708,3.5l0.952,0.084c0.168,0.112,0.112,0.616-0.056,0.7
	c-1.652-0.056-2.604-0.084-3.724-0.084c-1.232,0-2.184,0.028-3.5,0.084c-0.168-0.084-0.224-0.532-0.056-0.7l0.7-0.084
	c1.624-0.196,1.68-0.56,1.68-3.5V5.121c0-2.94-0.056-3.332-1.68-3.528l-0.448-0.056c-0.168-0.112-0.112-0.616,0.056-0.7
	c1.176,0.056,2.128,0.084,3.248,0.084h5.152c1.792,0,3.416,0,3.78-0.084c0,1.288,0.028,2.632,0.084,3.696
	c-0.084,0.168-0.476,0.252-0.672,0.084c-0.224-1.26-0.56-2.296-1.96-2.66c-0.616-0.168-1.54-0.168-2.716-0.168h-1.708
	c-0.84,0-0.84,0.056-0.84,1.12V8.817z"/>
<path fill="white" d="M128.603,8.817c0,0.756,0.084,0.756,0.924,0.756h1.904c1.148,0,2.044-0.056,2.38-0.168c0.308-0.112,0.532-0.252,0.7-0.98
	l0.252-1.12c0.14-0.168,0.616-0.168,0.728,0c0,0.672-0.112,1.792-0.112,2.828c0,1.008,0.112,2.072,0.112,2.716
	c-0.112,0.168-0.532,0.168-0.728,0l-0.28-1.092c-0.14-0.504-0.364-0.896-0.896-1.064c-0.392-0.112-1.092-0.14-2.156-0.14h-1.904
	c-0.84,0-0.924,0.028-0.924,0.756v3.892c0,2.94,0.056,3.36,1.708,3.5l0.952,0.084c0.168,0.112,0.112,0.616-0.056,0.7
	c-1.652-0.056-2.604-0.084-3.724-0.084c-1.232,0-2.184,0.028-3.5,0.084c-0.168-0.084-0.224-0.532-0.056-0.7l0.7-0.084
	c1.624-0.196,1.68-0.56,1.68-3.5V5.121c0-2.94-0.056-3.332-1.68-3.528l-0.448-0.056c-0.168-0.112-0.112-0.616,0.056-0.7
	c1.176,0.056,2.128,0.084,3.248,0.084h5.152c1.792,0,3.416,0,3.78-0.084c0,1.288,0.028,2.632,0.084,3.696
	c-0.084,0.168-0.476,0.252-0.672,0.084c-0.224-1.26-0.56-2.296-1.96-2.66c-0.616-0.168-1.54-0.168-2.716-0.168h-1.708
	c-0.84,0-0.84,0.056-0.84,1.12V8.817z"/>
<path fill="white" d="M141.371,5.177c0-2.968-0.056-3.444-1.708-3.584l-0.7-0.056c-0.168-0.112-0.112-0.616,0.056-0.7
	c1.4,0.056,2.352,0.084,3.528,0.084c1.12,0,2.072-0.028,3.472-0.084c0.168,0.084,0.224,0.588,0.056,0.7l-0.7,0.056
	c-1.652,0.14-1.708,0.616-1.708,3.584v9.968c0,2.968,0.056,3.36,1.708,3.556l0.7,0.084c0.168,0.112,0.112,0.616-0.056,0.7
	c-1.4-0.056-2.352-0.084-3.472-0.084c-1.176,0-2.128,0.028-3.528,0.084c-0.168-0.084-0.224-0.532-0.056-0.7l0.7-0.084
	c1.652-0.196,1.708-0.588,1.708-3.556V5.177z"/>
<path fill="white" d="M165.898,14.641c0,0.84,0,4.172,0.084,4.9c-0.056,0.168-0.224,0.308-0.531,0.308c-0.336-0.476-1.148-1.456-3.584-4.228
	l-6.496-7.392c-0.756-0.868-2.66-3.164-3.248-3.78h-0.056c-0.112,0.336-0.141,0.98-0.141,1.82v6.104
	c0,1.316,0.028,4.956,0.504,5.796c0.168,0.308,0.729,0.476,1.429,0.532l0.867,0.084c0.168,0.224,0.141,0.56-0.056,0.7
	c-1.26-0.056-2.24-0.084-3.276-0.084c-1.176,0-1.932,0.028-2.911,0.084c-0.196-0.14-0.225-0.532-0.057-0.7l0.756-0.084
	c0.645-0.084,1.093-0.252,1.232-0.56c0.392-1.008,0.364-4.424,0.364-5.768V4.281c0-0.784-0.028-1.372-0.616-2.016
	c-0.393-0.392-1.064-0.588-1.736-0.672l-0.476-0.056c-0.168-0.168-0.168-0.588,0.056-0.7c1.176,0.084,2.66,0.084,3.164,0.084
	c0.448,0,0.924-0.028,1.288-0.084c0.56,1.428,3.864,5.124,4.788,6.16l2.716,3.052c1.932,2.156,3.304,3.724,4.62,5.068h0.056
	c0.112-0.14,0.112-0.588,0.112-1.176V7.949c0-1.316-0.028-4.956-0.561-5.796c-0.168-0.252-0.615-0.42-1.735-0.56l-0.477-0.056
	c-0.195-0.168-0.168-0.616,0.057-0.7c1.288,0.056,2.239,0.084,3.304,0.084c1.204,0,1.932-0.028,2.884-0.084
	c0.225,0.14,0.225,0.532,0.057,0.7l-0.393,0.056c-0.896,0.14-1.456,0.364-1.567,0.588c-0.477,1.008-0.421,4.48-0.421,5.768V14.641z"
	/>
<path fill="white" d="M187.318,16.545c0,1.12,0.168,1.792,0.673,1.988c0.084,0.084,0.084,0.252-0.028,0.336c-0.336,0-0.84,0.112-1.372,0.252
	c-1.484,0.392-3.5,0.728-5.012,0.728c-3.332,0-6.385-0.924-8.54-3.108c-1.681-1.68-2.576-3.892-2.576-6.356
	c0-2.38,0.784-4.788,2.52-6.636c1.876-1.96,4.648-3.276,8.876-3.276c1.597,0,3.08,0.308,3.557,0.42
	c0.531,0.112,1.399,0.308,1.735,0.252c0,0.924,0.168,2.38,0.42,4.06c-0.084,0.224-0.588,0.252-0.756,0.084
	c-0.784-3.024-2.884-3.976-5.739-3.976c-5.433,0-7.812,3.864-7.812,8.064c0,5.376,2.772,9.604,8.4,9.604
	c1.735,0,2.771-0.364,3.08-0.84c0.14-0.196,0.279-0.7,0.279-1.596v-1.12c0-2.352-0.084-2.52-1.819-2.716l-1.232-0.14
	c-0.224-0.112-0.196-0.616,0-0.7c0.812,0.056,2.352,0.084,4.004,0.084c1.092,0,2.044-0.028,2.968-0.084
	c0.196,0.112,0.225,0.532,0.028,0.7l-0.448,0.056c-1.176,0.14-1.204,0.924-1.204,2.352V16.545z"/>
<path fill="white" d="M200.395,15.201c0,2.94,0.057,3.36,1.681,3.5l0.896,0.084c0.168,0.112,0.112,0.616-0.056,0.7
	c-1.597-0.056-2.548-0.084-3.668-0.084s-2.101,0.028-3.893,0.084c-0.168-0.084-0.224-0.56,0-0.7l1.008-0.084
	c1.597-0.14,1.736-0.56,1.736-3.5V2.685c0-0.868,0-0.896-0.84-0.896h-1.54c-1.204,0-2.744,0.056-3.444,0.7
	c-0.672,0.616-0.951,1.232-1.26,1.932c-0.224,0.168-0.616,0.028-0.728-0.196c0.447-1.26,0.868-3.052,1.063-4.172
	c0.084-0.056,0.448-0.084,0.532,0c0.168,0.896,1.092,0.868,2.38,0.868h11.34c1.512,0,1.765-0.056,2.185-0.784
	c0.14-0.056,0.447-0.028,0.504,0.084c-0.309,1.148-0.504,3.416-0.42,4.256c-0.112,0.224-0.588,0.224-0.729,0.056
	c-0.084-0.7-0.28-1.736-0.7-2.044c-0.644-0.476-1.708-0.7-3.248-0.7h-1.987c-0.84,0-0.812,0.028-0.812,0.952V15.201z"/>
<path fill="white" d="M208.963,10.357c0-5.6,4.2-9.884,9.968-9.884c6.468,0,9.716,4.676,9.716,9.604c0,5.656-4.312,9.772-9.716,9.772
	C212.715,19.849,208.963,15.397,208.963,10.357z M225.847,10.945c0-4.62-2.044-9.604-7.392-9.604c-2.912,0-6.692,1.988-6.692,8.12
	c0,4.144,2.016,9.52,7.532,9.52C222.654,18.981,225.847,16.461,225.847,10.945z"/>
<path fill="white" d="M248.582,14.641c0,0.84,0,4.172,0.084,4.9c-0.056,0.168-0.224,0.308-0.531,0.308c-0.336-0.476-1.148-1.456-3.584-4.228
	l-6.496-7.392c-0.756-0.868-2.66-3.164-3.248-3.78h-0.056c-0.112,0.336-0.141,0.98-0.141,1.82v6.104
	c0,1.316,0.028,4.956,0.504,5.796c0.168,0.308,0.729,0.476,1.429,0.532l0.867,0.084c0.168,0.224,0.141,0.56-0.056,0.7
	c-1.26-0.056-2.24-0.084-3.276-0.084c-1.176,0-1.932,0.028-2.911,0.084c-0.196-0.14-0.225-0.532-0.057-0.7l0.756-0.084
	c0.645-0.084,1.093-0.252,1.232-0.56c0.392-1.008,0.364-4.424,0.364-5.768V4.281c0-0.784-0.028-1.372-0.616-2.016
	c-0.393-0.392-1.064-0.588-1.736-0.672l-0.476-0.056c-0.168-0.168-0.168-0.588,0.056-0.7c1.176,0.084,2.66,0.084,3.164,0.084
	c0.448,0,0.924-0.028,1.288-0.084c0.56,1.428,3.864,5.124,4.788,6.16l2.716,3.052c1.932,2.156,3.304,3.724,4.62,5.068h0.056
	c0.112-0.14,0.112-0.588,0.112-1.176V7.949c0-1.316-0.028-4.956-0.561-5.796c-0.168-0.252-0.615-0.42-1.735-0.56l-0.477-0.056
	c-0.195-0.168-0.168-0.616,0.057-0.7c1.288,0.056,2.239,0.084,3.304,0.084c1.204,0,1.932-0.028,2.884-0.084
	c0.225,0.14,0.225,0.532,0.057,0.7l-0.393,0.056c-0.896,0.14-1.456,0.364-1.567,0.588c-0.477,1.008-0.421,4.48-0.421,5.768V14.641z"
	/>
<path fill="white" d="M264.738,15.201c0,2.94,0.056,3.304,1.848,3.5l0.757,0.084c0.168,0.14,0.111,0.616-0.057,0.7
	c-1.596-0.056-2.52-0.084-3.64-0.084c-1.176,0-2.185,0.028-3.416,0.084c-0.168-0.084-0.224-0.532-0.056-0.7l0.588-0.084
	c1.624-0.224,1.68-0.56,1.68-3.5V4.869c0-2.38-0.056-2.856-1.316-2.996l-1.008-0.112c-0.195-0.168-0.168-0.588,0.057-0.7
	c1.483-0.196,3.22-0.224,5.544-0.224c2.323,0,4.06,0.308,5.376,1.12c1.288,0.812,2.239,2.268,2.239,4.2
	c0,2.576-1.596,3.864-2.8,4.452c-1.231,0.588-2.716,0.84-3.864,0.84c-0.195-0.084-0.195-0.504-0.027-0.56
	c3.023-0.56,4.116-2.268,4.116-4.704c0-2.716-1.597-4.48-4.509-4.48c-1.483,0-1.512,0.112-1.512,1.008V15.201z"/>
<path fill="white" d="M275.519,10.357c0-5.6,4.2-9.884,9.968-9.884c6.468,0,9.716,4.676,9.716,9.604c0,5.656-4.312,9.772-9.716,9.772
	C279.271,19.849,275.519,15.397,275.519,10.357z M292.402,10.945c0-4.62-2.044-9.604-7.392-9.604c-2.912,0-6.692,1.988-6.692,8.12
	c0,4.144,2.016,9.52,7.532,9.52C289.21,18.981,292.402,16.461,292.402,10.945z"/>
<path fill="white" d="M302.763,19.849c-2.353,0-3.837-0.728-4.368-1.036c-0.336-0.616-0.7-2.604-0.756-3.92c0.14-0.196,0.56-0.252,0.672-0.084
	c0.42,1.428,1.567,4.172,4.815,4.172c2.353,0,3.5-1.54,3.5-3.22c0-1.232-0.252-2.604-2.296-3.92l-2.66-1.736
	c-1.399-0.924-3.023-2.52-3.023-4.816c0-2.66,2.071-4.816,5.712-4.816c0.868,0,1.876,0.168,2.604,0.364
	c0.364,0.112,0.756,0.168,0.98,0.168c0.252,0.672,0.504,2.24,0.504,3.416c-0.112,0.168-0.561,0.252-0.7,0.084
	c-0.364-1.344-1.12-3.164-3.808-3.164c-2.744,0-3.332,1.82-3.332,3.108c0,1.624,1.344,2.8,2.38,3.444l2.24,1.4
	c1.764,1.092,3.5,2.716,3.5,5.376C308.727,17.749,306.402,19.849,302.763,19.849z"/>
<path fill="white" d="M320.486,15.201c0,2.94,0.057,3.36,1.681,3.5l0.896,0.084c0.168,0.112,0.112,0.616-0.056,0.7
	c-1.597-0.056-2.548-0.084-3.668-0.084s-2.101,0.028-3.893,0.084c-0.168-0.084-0.224-0.56,0-0.7l1.008-0.084
	c1.597-0.14,1.736-0.56,1.736-3.5V2.685c0-0.868,0-0.896-0.84-0.896h-1.54c-1.204,0-2.744,0.056-3.444,0.7
	c-0.672,0.616-0.951,1.232-1.26,1.932c-0.224,0.168-0.616,0.028-0.728-0.196c0.447-1.26,0.868-3.052,1.063-4.172
	c0.084-0.056,0.448-0.084,0.532,0c0.168,0.896,1.092,0.868,2.38,0.868h11.34c1.512,0,1.765-0.056,2.185-0.784
	c0.14-0.056,0.447-0.028,0.504,0.084c-0.309,1.148-0.504,3.416-0.42,4.256c-0.112,0.224-0.588,0.224-0.729,0.056
	c-0.084-0.7-0.28-1.736-0.7-2.044c-0.644-0.476-1.708-0.7-3.248-0.7h-1.987c-0.84,0-0.812,0.028-0.812,0.952V15.201z"/>
</svg>
