<?xml version="1.0" encoding="utf-8"?>
<!-- Generator: Adobe Illustrator 15.0.0, SVG Export Plug-In  -->
<!DOCTYPE svg PUBLIC "-//W3C//DTD SVG 1.1//EN" "http://www.w3.org/Graphics/SVG/1.1/DTD/svg11.dtd" [
	<!ENTITY ns_flows "http://ns.adobe.com/Flows/1.0/">
]>
<svg version="1.1"
	 xmlns="http://www.w3.org/2000/svg" xmlns:xlink="http://www.w3.org/1999/xlink" xmlns:a="http://ns.adobe.com/AdobeSVGViewerExtensions/3.0/"
	 x="0px" y="0px" width="265px" height="16px" viewBox="0 0 265 16" overflow="visible" enable-background="new 0 0 265 16"
	 xml:space="preserve">
<defs>
</defs>
<path fill="#FFFFFF" d="M8.148,12.254c0,2.37,0.045,2.708,1.354,2.821l0.722,0.068c0.136,0.09,0.091,0.497-0.044,0.564
	c-1.287-0.045-2.054-0.068-2.957-0.068s-1.692,0.022-3.137,0.068c-0.135-0.068-0.181-0.452,0-0.564l0.812-0.068
	c1.287-0.113,1.4-0.452,1.4-2.821V2.165c0-0.7,0-0.723-0.677-0.723H4.378c-0.97,0-2.212,0.045-2.775,0.564
	C1.061,2.503,0.835,3,0.587,3.564C0.406,3.7,0.09,3.586,0,3.406c0.361-1.016,0.699-2.46,0.857-3.363
	c0.068-0.045,0.361-0.068,0.429,0c0.136,0.722,0.879,0.7,1.918,0.7h9.141c1.219,0,1.422-0.045,1.76-0.632
	c0.114-0.045,0.362-0.022,0.407,0.068c-0.249,0.926-0.407,2.754-0.339,3.431c-0.09,0.18-0.474,0.18-0.586,0.045
	c-0.068-0.564-0.226-1.399-0.565-1.648c-0.519-0.384-1.376-0.564-2.618-0.564H8.803c-0.677,0-0.655,0.022-0.655,0.768V12.254z"/>
<path fill="#FFFFFF" d="M20.606,8.349c-1.083,0-1.129,0.045-1.129,0.722v3.183c0,2.37,0.114,2.686,1.377,2.821l0.655,0.068
	c0.136,0.09,0.09,0.497-0.045,0.564c-1.219-0.045-1.986-0.068-2.866-0.068c-0.971,0-1.738,0.045-2.619,0.068
	c-0.135-0.068-0.18-0.429-0.045-0.564l0.385-0.068c1.263-0.226,1.309-0.452,1.309-2.821V4.128c0-2.37-0.158-2.753-1.333-2.844
	l-0.586-0.045c-0.136-0.09-0.091-0.497,0.044-0.564c1.106,0.023,1.874,0.068,2.845,0.068c0.879,0,1.647-0.022,2.618-0.068
	c0.136,0.068,0.18,0.474,0.046,0.564l-0.43,0.045c-1.309,0.136-1.354,0.474-1.354,2.844v2.596c0,0.7,0.046,0.722,1.129,0.722h6.456
	c1.083,0,1.128-0.022,1.128-0.722V4.128c0-2.37-0.045-2.708-1.376-2.844l-0.429-0.045c-0.136-0.09-0.09-0.497,0.045-0.564
	c1.038,0.045,1.805,0.068,2.73,0.068c0.881,0,1.648-0.022,2.664-0.068c0.136,0.068,0.181,0.474,0.045,0.564l-0.474,0.045
	c-1.309,0.136-1.354,0.474-1.354,2.844v8.126c0,2.37,0.045,2.663,1.354,2.821l0.542,0.068c0.136,0.09,0.09,0.497-0.045,0.564
	c-1.083-0.045-1.851-0.068-2.731-0.068c-0.925,0-1.737,0.022-2.73,0.068c-0.136-0.068-0.181-0.429-0.045-0.564l0.429-0.068
	c1.376-0.226,1.376-0.452,1.376-2.821V9.071c0-0.677-0.045-0.722-1.128-0.722H20.606z"/>
<path fill="#FFFFFF" d="M35.817,4.128c0-2.347-0.045-2.686-1.376-2.844l-0.362-0.045c-0.136-0.09-0.09-0.497,0.044-0.564
	c0.971,0.045,1.738,0.068,2.665,0.068h4.243c1.444,0,2.777,0,3.047-0.068c0.136,0.384,0.271,2.009,0.361,3.002
	c-0.09,0.136-0.452,0.181-0.563,0.045c-0.339-1.061-0.542-1.851-1.716-2.145c-0.474-0.113-1.196-0.135-2.189-0.135h-1.625
	c-0.677,0-0.677,0.045-0.677,0.903v4.514c0,0.632,0.068,0.632,0.745,0.632h1.309c0.949,0,1.648-0.046,1.918-0.136
	c0.271-0.09,0.429-0.226,0.542-0.79l0.181-0.925c0.112-0.136,0.496-0.136,0.587,0.023c0,0.542-0.091,1.421-0.091,2.279
	c0,0.812,0.091,1.67,0.091,2.167c-0.091,0.158-0.475,0.158-0.587,0.022l-0.204-0.88c-0.09-0.407-0.248-0.745-0.699-0.858
	c-0.316-0.09-0.857-0.113-1.738-0.113h-1.309c-0.677,0-0.745,0.022-0.745,0.609v3.183c0,1.196,0.068,1.964,0.429,2.347
	c0.27,0.271,0.745,0.52,2.731,0.52c1.738,0,2.392-0.091,2.889-0.338c0.406-0.226,1.015-1.016,1.603-2.19
	c0.158-0.113,0.474-0.045,0.564,0.158c-0.158,0.79-0.722,2.528-1.016,3.138c-2.032-0.045-4.04-0.068-6.049-0.068h-2.031
	c-0.971,0-1.738,0.022-3.07,0.068c-0.136-0.068-0.18-0.429-0.044-0.564l0.744-0.068c1.287-0.113,1.4-0.452,1.4-2.821V4.128z"/>
<path fill="#FFFFFF" d="M57.619,8.349c-1.083,0-1.127,0.045-1.127,0.722v3.183c0,2.37,0.112,2.686,1.377,2.821l0.654,0.068
	c0.135,0.09,0.091,0.497-0.044,0.564c-1.219-0.045-1.986-0.068-2.867-0.068c-0.971,0-1.738,0.045-2.618,0.068
	c-0.136-0.068-0.181-0.429-0.045-0.564l0.383-0.068c1.265-0.226,1.309-0.452,1.309-2.821V4.128c0-2.37-0.158-2.753-1.331-2.844
	l-0.587-0.045c-0.136-0.09-0.09-0.497,0.046-0.564c1.105,0.023,1.873,0.068,2.843,0.068c0.881,0,1.648-0.022,2.618-0.068
	c0.136,0.068,0.182,0.474,0.046,0.564l-0.429,0.045c-1.309,0.136-1.354,0.474-1.354,2.844v2.596c0,0.7,0.044,0.722,1.127,0.722
	h6.456c1.084,0,1.129-0.022,1.129-0.722V4.128c0-2.37-0.044-2.708-1.377-2.844l-0.429-0.045c-0.135-0.09-0.09-0.497,0.045-0.564
	c1.039,0.045,1.806,0.068,2.731,0.068c0.881,0,1.648-0.022,2.663-0.068c0.136,0.068,0.18,0.474,0.046,0.564l-0.475,0.045
	c-1.309,0.136-1.353,0.474-1.353,2.844v8.126c0,2.37,0.044,2.663,1.353,2.821l0.542,0.068c0.136,0.09,0.091,0.497-0.044,0.564
	c-1.083-0.045-1.85-0.068-2.731-0.068c-0.925,0-1.738,0.022-2.731,0.068c-0.136-0.068-0.18-0.429-0.045-0.564l0.429-0.068
	c1.377-0.226,1.377-0.452,1.377-2.821V9.071c0-0.677-0.044-0.722-1.129-0.722H57.619z"/>
<path fill="#FFFFFF" d="M83.597,6.408c0-1.399-0.046-3.995-0.429-4.672c-0.158-0.271-0.564-0.429-1.129-0.474l-0.564-0.045
	c-0.136-0.158-0.09-0.452,0.046-0.542c0.857,0.045,1.692,0.068,2.572,0.068c0.949,0,1.558-0.022,2.371-0.068
	c0.18,0.113,0.158,0.406,0.044,0.542l-0.542,0.045c-0.564,0.045-0.993,0.248-1.129,0.542c-0.315,0.745-0.315,3.341-0.315,4.604
	v2.551c0,1.964-0.316,4.041-1.581,5.395C81.971,15.414,80.302,16,78.632,16c-1.558,0-3.115-0.293-4.221-1.241
	c-1.197-0.993-1.761-2.641-1.761-5.327V4.106c0-2.348-0.045-2.731-1.354-2.844l-0.563-0.045c-0.136-0.091-0.091-0.474,0.044-0.542
	c1.128,0.045,1.896,0.068,2.799,0.068c0.925,0,1.67-0.022,2.777-0.068c0.135,0.068,0.18,0.451,0.044,0.542l-0.542,0.045
	C74.546,1.375,74.5,1.758,74.5,4.106v4.875c0,3.634,1.129,6.026,4.582,6.026c3.274,0,4.515-2.573,4.515-6.004V6.408z"/>
<path fill="#FFFFFF" d="M91.518,7.108c0,0.609,0.068,0.609,0.745,0.609h1.535c0.925,0,1.648-0.045,1.918-0.136
	c0.249-0.09,0.429-0.203,0.565-0.79l0.203-0.903c0.113-0.135,0.497-0.135,0.587,0c0,0.542-0.09,1.444-0.09,2.279
	c0,0.813,0.09,1.67,0.09,2.19c-0.09,0.136-0.429,0.136-0.587,0l-0.226-0.88c-0.112-0.406-0.292-0.722-0.722-0.858
	c-0.316-0.09-0.881-0.113-1.738-0.113h-1.535c-0.677,0-0.745,0.023-0.745,0.609v3.138c0,2.37,0.045,2.708,1.376,2.821l0.768,0.068
	c0.136,0.09,0.09,0.497-0.044,0.564c-1.333-0.045-2.1-0.068-3.003-0.068c-0.993,0-1.76,0.022-2.821,0.068
	c-0.136-0.068-0.18-0.429-0.044-0.564l0.563-0.068c1.309-0.158,1.354-0.452,1.354-2.821V4.128c0-2.37-0.045-2.686-1.354-2.844
	l-0.361-0.045c-0.136-0.09-0.09-0.497,0.045-0.564c0.948,0.045,1.715,0.068,2.618,0.068h4.154c1.444,0,2.753,0,3.047-0.068
	c0,1.039,0.022,2.122,0.068,2.979C97.815,3.79,97.5,3.857,97.342,3.722c-0.182-1.016-0.452-1.851-1.58-2.145
	c-0.498-0.135-1.241-0.135-2.19-0.135h-1.376c-0.677,0-0.677,0.045-0.677,0.903V7.108z"/>
<path fill="#FFFFFF" d="M103.66,7.108c0,0.609,0.068,0.609,0.745,0.609h1.535c0.925,0,1.648-0.045,1.918-0.136
	c0.25-0.09,0.43-0.203,0.565-0.79l0.202-0.903c0.113-0.135,0.497-0.135,0.587,0c0,0.542-0.09,1.444-0.09,2.279
	c0,0.813,0.09,1.67,0.09,2.19c-0.09,0.136-0.429,0.136-0.587,0l-0.226-0.88c-0.112-0.406-0.292-0.722-0.722-0.858
	c-0.316-0.09-0.881-0.113-1.738-0.113h-1.535c-0.677,0-0.745,0.023-0.745,0.609v3.138c0,2.37,0.046,2.708,1.377,2.821l0.767,0.068
	c0.136,0.09,0.09,0.497-0.044,0.564c-1.332-0.045-2.1-0.068-3.002-0.068c-0.993,0-1.76,0.022-2.821,0.068
	c-0.136-0.068-0.18-0.429-0.044-0.564l0.564-0.068c1.309-0.158,1.354-0.452,1.354-2.821V4.128c0-2.37-0.045-2.686-1.354-2.844
	l-0.362-0.045c-0.136-0.09-0.09-0.497,0.046-0.564c0.947,0.045,1.714,0.068,2.618,0.068h4.153c1.445,0,2.753,0,3.047-0.068
	c0,1.039,0.022,2.122,0.068,2.979c-0.068,0.135-0.383,0.203-0.542,0.068c-0.181-1.016-0.451-1.851-1.58-2.145
	c-0.497-0.135-1.241-0.135-2.189-0.135h-1.377c-0.677,0-0.677,0.045-0.677,0.903V7.108z"/>
<path fill="#FFFFFF" d="M113.952,4.173c0-2.393-0.046-2.776-1.377-2.889l-0.565-0.045c-0.136-0.09-0.09-0.497,0.046-0.564
	c1.128,0.045,1.896,0.068,2.843,0.068c0.903,0,1.67-0.022,2.799-0.068c0.135,0.068,0.18,0.474,0.045,0.564l-0.565,0.045
	c-1.331,0.113-1.377,0.497-1.377,2.889v8.036c0,2.393,0.046,2.708,1.377,2.866l0.565,0.068c0.134,0.09,0.09,0.497-0.045,0.564
	c-1.129-0.045-1.896-0.068-2.799-0.068c-0.947,0-1.715,0.022-2.843,0.068c-0.136-0.068-0.182-0.429-0.046-0.564l0.565-0.068
	c1.331-0.158,1.377-0.474,1.377-2.866V4.173z"/>
<path fill="#FFFFFF" d="M133.723,11.802c0,0.677,0,3.363,0.067,3.95c-0.044,0.136-0.18,0.248-0.428,0.248
	c-0.271-0.384-0.925-1.173-2.889-3.408l-5.237-5.958c-0.609-0.7-2.144-2.551-2.619-3.047h-0.044
	c-0.09,0.271-0.114,0.791-0.114,1.468v4.92c0,1.061,0.023,3.995,0.407,4.672c0.135,0.248,0.586,0.384,1.151,0.429l0.7,0.068
	c0.136,0.181,0.113,0.451-0.046,0.564c-1.015-0.045-1.805-0.068-2.64-0.068c-0.949,0-1.558,0.022-2.348,0.068
	c-0.158-0.113-0.181-0.429-0.045-0.564l0.609-0.068c0.519-0.068,0.88-0.203,0.993-0.452c0.316-0.812,0.294-3.566,0.294-4.649V3.451
	c0-0.631-0.022-1.105-0.496-1.625c-0.317-0.316-0.858-0.474-1.4-0.542l-0.384-0.045c-0.136-0.135-0.136-0.474,0.045-0.564
	c0.948,0.068,2.144,0.068,2.55,0.068c0.362,0,0.745-0.022,1.039-0.068c0.451,1.151,3.115,4.13,3.86,4.966l2.189,2.46
	c1.557,1.737,2.664,3.002,3.724,4.085h0.044c0.09-0.113,0.09-0.474,0.09-0.948v-4.83c0-1.061-0.022-3.995-0.452-4.672
	c-0.134-0.203-0.496-0.339-1.399-0.452l-0.384-0.045c-0.158-0.135-0.136-0.497,0.046-0.564c1.038,0.045,1.805,0.068,2.663,0.068
	c0.97,0,1.557-0.022,2.324-0.068c0.18,0.113,0.18,0.429,0.046,0.564l-0.316,0.045c-0.723,0.113-1.174,0.293-1.265,0.474
	c-0.383,0.812-0.339,3.611-0.339,4.649V11.802z"/>
<path fill="#FFFFFF" d="M150.988,13.337c0,0.903,0.136,1.444,0.542,1.603c0.068,0.067,0.068,0.203-0.022,0.271
	c-0.271,0-0.677,0.09-1.106,0.203c-1.196,0.316-2.821,0.587-4.04,0.587c-2.686,0-5.146-0.745-6.884-2.505
	c-1.354-1.354-2.077-3.138-2.077-5.124c0-1.919,0.633-3.86,2.032-5.349c1.512-1.58,3.746-2.641,7.155-2.641
	c1.287,0,2.483,0.248,2.867,0.338c0.429,0.09,1.129,0.248,1.399,0.203c0,0.745,0.136,1.918,0.339,3.272
	c-0.068,0.181-0.474,0.203-0.609,0.068c-0.633-2.438-2.325-3.205-4.627-3.205c-4.379,0-6.297,3.115-6.297,6.5
	c0,4.334,2.234,7.742,6.771,7.742c1.4,0,2.235-0.293,2.483-0.677c0.112-0.158,0.226-0.564,0.226-1.287v-0.902
	c0-1.896-0.067-2.032-1.468-2.189l-0.993-0.113c-0.18-0.09-0.158-0.496,0-0.564c0.655,0.045,1.896,0.068,3.229,0.068
	c0.879,0,1.648-0.023,2.392-0.068c0.158,0.09,0.181,0.429,0.023,0.564l-0.362,0.045c-0.948,0.113-0.971,0.745-0.971,1.896V13.337z"
	/>
<path fill="#FFFFFF" d="M161.528,12.254c0,2.37,0.044,2.708,1.353,2.821l0.723,0.068c0.135,0.09,0.09,0.497-0.046,0.564
	c-1.287-0.045-2.054-0.068-2.957-0.068c-0.903,0-1.692,0.022-3.137,0.068c-0.136-0.068-0.18-0.452,0-0.564l0.813-0.068
	c1.287-0.113,1.399-0.452,1.399-2.821V2.165c0-0.7,0-0.723-0.678-0.723h-1.241c-0.971,0-2.212,0.045-2.777,0.564
	c-0.542,0.497-0.767,0.993-1.015,1.558c-0.18,0.136-0.496,0.022-0.587-0.158c0.361-1.016,0.701-2.46,0.859-3.363
	c0.068-0.045,0.36-0.068,0.428,0c0.136,0.722,0.881,0.7,1.918,0.7h9.142c1.219,0,1.421-0.045,1.76-0.632
	c0.112-0.045,0.361-0.022,0.406,0.068c-0.248,0.926-0.406,2.754-0.338,3.431c-0.09,0.18-0.474,0.18-0.587,0.045
	c-0.068-0.564-0.226-1.399-0.564-1.648c-0.52-0.384-1.377-0.564-2.619-0.564h-1.602c-0.677,0-0.654,0.022-0.654,0.768V12.254z"/>
<path fill="#FFFFFF" d="M168.433,8.349c0-4.515,3.386-7.967,8.036-7.967c5.214,0,7.832,3.769,7.832,7.741
	c0,4.56-3.476,7.877-7.832,7.877C171.458,16,168.433,12.412,168.433,8.349z M182.043,8.823c0-3.724-1.647-7.742-5.958-7.742
	c-2.348,0-5.395,1.603-5.395,6.545c0,3.341,1.625,7.674,6.072,7.674C179.471,15.301,182.043,13.27,182.043,8.823z"/>
<path fill="#FFFFFF" d="M200.369,11.802c0,0.677,0,3.363,0.068,3.95c-0.044,0.136-0.18,0.248-0.428,0.248
	c-0.271-0.384-0.925-1.173-2.889-3.408l-5.236-5.958c-0.609-0.7-2.144-2.551-2.619-3.047h-0.044
	c-0.09,0.271-0.113,0.791-0.113,1.468v4.92c0,1.061,0.023,3.995,0.407,4.672c0.134,0.248,0.586,0.384,1.151,0.429l0.699,0.068
	c0.136,0.181,0.114,0.451-0.045,0.564c-1.016-0.045-1.805-0.068-2.64-0.068c-0.949,0-1.558,0.022-2.348,0.068
	c-0.158-0.113-0.181-0.429-0.045-0.564l0.609-0.068c0.52-0.068,0.881-0.203,0.993-0.452c0.316-0.812,0.293-3.566,0.293-4.649V3.451
	c0-0.631-0.022-1.105-0.496-1.625c-0.317-0.316-0.858-0.474-1.4-0.542l-0.384-0.045c-0.136-0.135-0.136-0.474,0.046-0.564
	c0.947,0.068,2.144,0.068,2.55,0.068c0.361,0,0.745-0.022,1.039-0.068c0.452,1.151,3.115,4.13,3.86,4.966l2.19,2.46
	c1.557,1.737,2.663,3.002,3.724,4.085h0.044c0.09-0.113,0.09-0.474,0.09-0.948v-4.83c0-1.061-0.022-3.995-0.452-4.672
	c-0.134-0.203-0.496-0.339-1.398-0.452l-0.384-0.045c-0.158-0.135-0.136-0.497,0.045-0.564c1.038,0.045,1.805,0.068,2.664,0.068
	c0.97,0,1.557-0.022,2.324-0.068c0.18,0.113,0.18,0.429,0.045,0.564l-0.316,0.045c-0.723,0.113-1.174,0.293-1.264,0.474
	c-0.384,0.812-0.339,3.611-0.339,4.649V11.802z"/>
<path fill="#FFFFFF" d="M213.392,12.254c0,2.37,0.044,2.663,1.489,2.821l0.609,0.068c0.135,0.113,0.09,0.497-0.044,0.564
	c-1.287-0.045-2.032-0.068-2.935-0.068c-0.947,0-1.76,0.022-2.753,0.068c-0.136-0.068-0.181-0.429-0.045-0.564l0.474-0.068
	c1.31-0.181,1.354-0.452,1.354-2.821V3.925c0-1.919-0.044-2.303-1.061-2.416l-0.812-0.09c-0.158-0.136-0.136-0.475,0.044-0.564
	c1.197-0.158,2.595-0.181,4.469-0.181s3.273,0.249,4.333,0.903c1.039,0.654,1.806,1.828,1.806,3.386
	c0,2.077-1.287,3.115-2.257,3.589c-0.993,0.474-2.19,0.677-3.115,0.677c-0.158-0.067-0.158-0.406-0.022-0.452
	c2.438-0.451,3.317-1.828,3.317-3.791c0-2.19-1.286-3.611-3.633-3.611c-1.196,0-1.219,0.09-1.219,0.812V12.254z"/>
<path fill="#FFFFFF" d="M222.081,8.349c0-4.515,3.385-7.967,8.036-7.967c5.213,0,7.832,3.769,7.832,7.741
	c0,4.56-3.477,7.877-7.832,7.877C225.105,16,222.081,12.412,222.081,8.349z M235.69,8.823c0-3.724-1.648-7.742-5.958-7.742
	c-2.348,0-5.395,1.603-5.395,6.545c0,3.341,1.625,7.674,6.07,7.674C233.117,15.301,235.69,13.27,235.69,8.823z"/>
<path fill="#FFFFFF" d="M244.041,16c-1.896,0-3.093-0.587-3.522-0.835c-0.271-0.497-0.564-2.099-0.609-3.16
	c0.113-0.158,0.451-0.203,0.542-0.067c0.338,1.151,1.263,3.363,3.882,3.363c1.896,0,2.821-1.242,2.821-2.595
	c0-0.993-0.204-2.099-1.852-3.16l-2.144-1.399c-1.129-0.745-2.438-2.032-2.438-3.882c0-2.145,1.67-3.882,4.605-3.882
	c0.699,0,1.512,0.135,2.098,0.293c0.293,0.09,0.609,0.136,0.791,0.136c0.202,0.542,0.406,1.805,0.406,2.753
	c-0.09,0.136-0.452,0.203-0.564,0.068c-0.293-1.083-0.903-2.551-3.07-2.551c-2.212,0-2.686,1.467-2.686,2.505
	c0,1.309,1.083,2.257,1.918,2.776l1.806,1.129c1.422,0.88,2.821,2.189,2.821,4.333C248.848,14.308,246.974,16,244.041,16z"/>
<path fill="#FFFFFF" d="M258.327,12.254c0,2.37,0.045,2.708,1.354,2.821l0.722,0.068c0.136,0.09,0.091,0.497-0.044,0.564
	c-1.287-0.045-2.054-0.068-2.957-0.068s-1.692,0.022-3.137,0.068c-0.135-0.068-0.181-0.452,0-0.564l0.812-0.068
	c1.287-0.113,1.4-0.452,1.4-2.821V2.165c0-0.7,0-0.723-0.677-0.723h-1.242c-0.97,0-2.212,0.045-2.775,0.564
	c-0.542,0.497-0.768,0.993-1.015,1.558c-0.182,0.136-0.498,0.022-0.587-0.158c0.361-1.016,0.699-2.46,0.857-3.363
	c0.068-0.045,0.361-0.068,0.429,0c0.136,0.722,0.879,0.7,1.918,0.7h9.141c1.219,0,1.422-0.045,1.76-0.632
	c0.114-0.045,0.362-0.022,0.407,0.068c-0.249,0.926-0.407,2.754-0.339,3.431c-0.09,0.18-0.474,0.18-0.586,0.045
	c-0.068-0.564-0.226-1.399-0.565-1.648c-0.519-0.384-1.376-0.564-2.618-0.564h-1.603c-0.677,0-0.655,0.022-0.655,0.768V12.254z"/>
</svg>
