<?xml version="1.0" encoding="utf-8"?>
<!-- Generator: Adobe Illustrator 15.0.0, SVG Export Plug-In . SVG Version: 6.00 Build 0)  -->
<!DOCTYPE svg PUBLIC "-//W3C//DTD SVG 1.1//EN" "http://www.w3.org/Graphics/SVG/1.1/DTD/svg11.dtd">
<svg version="1.1" id="Layer_1" xmlns="http://www.w3.org/2000/svg" xmlns:xlink="http://www.w3.org/1999/xlink" x="0px" y="0px"
	 width="92.834px" height="12.764px" viewBox="0 0 92.834 12.764" enable-background="new 0 0 92.834 12.764" xml:space="preserve">
<g>
	<path fill="#FFFFFF" d="M4.972,6.637c-0.864,0-0.9,0.036-0.9,0.576v2.539c0,1.891,0.09,2.143,1.098,2.25l0.522,0.054
		c0.108,0.072,0.072,0.396-0.036,0.45c-0.973-0.036-1.584-0.054-2.287-0.054c-0.774,0-1.387,0.035-2.089,0.054
		c-0.108-0.054-0.144-0.342-0.036-0.45l0.306-0.054c1.008-0.181,1.044-0.36,1.044-2.25V3.271c0-1.891-0.126-2.196-1.062-2.269
		L1.065,0.966C0.957,0.894,0.993,0.57,1.101,0.516C1.983,0.534,2.596,0.57,3.37,0.57c0.702,0,1.314-0.018,2.088-0.054
		c0.108,0.054,0.144,0.378,0.036,0.45L5.152,1.001c-1.044,0.108-1.08,0.379-1.08,2.27v2.07c0,0.558,0.036,0.576,0.9,0.576h5.15
		c0.864,0,0.9-0.019,0.9-0.576v-2.07c0-1.891-0.036-2.161-1.098-2.269L9.582,0.966C9.474,0.894,9.51,0.57,9.618,0.516
		c0.828,0.036,1.44,0.054,2.179,0.054c0.702,0,1.314-0.018,2.125-0.054c0.108,0.054,0.144,0.378,0.036,0.45L13.58,1.002
		c-1.044,0.107-1.081,0.378-1.081,2.269v6.482c0,1.891,0.036,2.125,1.081,2.25l0.432,0.054c0.108,0.072,0.072,0.396-0.036,0.45
		c-0.864-0.036-1.477-0.054-2.179-0.054c-0.738,0-1.386,0.018-2.179,0.054c-0.108-0.054-0.144-0.342-0.036-0.45l0.342-0.054
		c1.098-0.18,1.098-0.36,1.098-2.25v-2.54c0-0.54-0.036-0.576-0.9-0.576H4.972z"/>
	<path fill="#FFFFFF" d="M25.692,5.089c0-1.116-0.036-3.188-0.342-3.728c-0.126-0.216-0.45-0.342-0.9-0.378L24,0.948
		c-0.108-0.127-0.072-0.36,0.036-0.433c0.685,0.036,1.351,0.054,2.053,0.054c0.756,0,1.242-0.018,1.891-0.054
		c0.144,0.09,0.126,0.324,0.036,0.433l-0.433,0.035c-0.45,0.036-0.792,0.198-0.9,0.433C26.43,2.01,26.43,4.081,26.43,5.089v2.035
		c0,1.565-0.252,3.223-1.26,4.303c-0.774,0.846-2.107,1.314-3.439,1.314c-1.242,0-2.484-0.234-3.367-0.99
		c-0.954-0.792-1.404-2.107-1.404-4.25V3.252c0-1.873-0.036-2.179-1.08-2.27l-0.45-0.036c-0.108-0.071-0.072-0.378,0.036-0.432
		c0.9,0.036,1.513,0.054,2.233,0.054c0.738,0,1.332-0.018,2.215-0.054c0.107,0.054,0.144,0.36,0.036,0.432l-0.433,0.036
		c-1.044,0.091-1.08,0.396-1.08,2.27v3.889c0,2.899,0.9,4.808,3.655,4.808c2.61,0,3.601-2.053,3.601-4.789L25.692,5.089
		L25.692,5.089z"/>
	<path fill="#FFFFFF" d="M32.008,5.647c0,0.486,0.055,0.486,0.594,0.486h1.225c0.738,0,1.314-0.036,1.531-0.108
		c0.197-0.071,0.342-0.162,0.449-0.63l0.162-0.72c0.09-0.108,0.396-0.108,0.469,0c0,0.432-0.072,1.152-0.072,1.818
		c0,0.647,0.072,1.333,0.072,1.747c-0.072,0.107-0.342,0.107-0.469,0l-0.18-0.702c-0.09-0.324-0.234-0.576-0.576-0.685
		c-0.252-0.071-0.701-0.09-1.387-0.09h-1.225c-0.539,0-0.594,0.019-0.594,0.486v2.503c0,1.891,0.037,2.161,1.1,2.25l0.611,0.054
		c0.107,0.072,0.072,0.396-0.035,0.45c-1.062-0.036-1.676-0.054-2.396-0.054c-0.791,0-1.404,0.018-2.25,0.054
		c-0.108-0.054-0.145-0.342-0.036-0.45l0.45-0.054c1.044-0.126,1.08-0.36,1.08-2.25V3.271c0-1.891-0.035-2.143-1.08-2.269
		l-0.288-0.036c-0.108-0.072-0.072-0.396,0.036-0.45c0.756,0.036,1.369,0.054,2.087,0.054H34.6c1.152,0,2.195,0,2.43-0.054
		c0,0.828,0.018,1.692,0.055,2.376C37.031,3,36.779,3.054,36.654,2.946c-0.145-0.81-0.361-1.477-1.262-1.71
		c-0.396-0.107-0.99-0.107-1.746-0.107h-1.098c-0.541,0-0.541,0.036-0.541,0.72L32.008,5.647L32.008,5.647z"/>
	<path fill="#FFFFFF" d="M41.691,5.647c0,0.486,0.055,0.486,0.594,0.486h1.225c0.738,0,1.314-0.036,1.531-0.108
		c0.197-0.071,0.342-0.162,0.449-0.63l0.162-0.72c0.09-0.108,0.396-0.108,0.469,0c0,0.432-0.072,1.152-0.072,1.818
		c0,0.647,0.072,1.333,0.072,1.747c-0.072,0.107-0.342,0.107-0.469,0l-0.18-0.702c-0.09-0.324-0.234-0.576-0.576-0.685
		c-0.252-0.071-0.701-0.09-1.387-0.09h-1.225c-0.539,0-0.594,0.019-0.594,0.486v2.503c0,1.891,0.037,2.161,1.1,2.25l0.611,0.054
		c0.107,0.072,0.072,0.396-0.035,0.45c-1.062-0.036-1.676-0.054-2.396-0.054c-0.791,0-1.404,0.018-2.25,0.054
		c-0.107-0.054-0.145-0.342-0.035-0.45l0.449-0.054c1.045-0.126,1.08-0.36,1.08-2.25V3.271c0-1.891-0.035-2.143-1.08-2.269
		l-0.287-0.036c-0.109-0.072-0.072-0.396,0.035-0.45c0.756,0.036,1.369,0.054,2.088,0.054h3.314c1.152,0,2.195,0,2.43-0.054
		c0,0.828,0.018,1.692,0.055,2.376C46.715,3,46.463,3.054,46.338,2.946c-0.145-0.81-0.361-1.477-1.262-1.71
		c-0.396-0.107-0.99-0.107-1.746-0.107h-1.098c-0.541,0-0.541,0.036-0.541,0.72V5.647z"/>
	<path fill="#FFFFFF" d="M51.375,9.752c0,1.891,0.037,2.125,1.188,2.25l0.486,0.054c0.107,0.09,0.07,0.396-0.037,0.45
		c-1.025-0.036-1.621-0.054-2.34-0.054c-0.758,0-1.404,0.018-2.197,0.054c-0.106-0.054-0.145-0.342-0.035-0.45l0.377-0.054
		c1.045-0.145,1.08-0.36,1.08-2.25V3.108c0-1.53-0.035-1.836-0.846-1.927L48.403,1.11c-0.125-0.107-0.106-0.378,0.037-0.449
		c0.953-0.126,2.07-0.145,3.564-0.145s2.611,0.198,3.457,0.72c0.828,0.522,1.439,1.458,1.439,2.701c0,1.657-1.025,2.485-1.801,2.863
		c-0.791,0.378-1.746,0.54-2.484,0.54c-0.125-0.054-0.125-0.324-0.018-0.36c1.944-0.359,2.646-1.458,2.646-3.024
		c0-1.747-1.025-2.881-2.897-2.881c-0.955,0-0.974,0.071-0.974,0.647v8.03H51.375z"/>
	<path fill="#FFFFFF" d="M58.306,6.637c0-3.601,2.7-6.354,6.409-6.354c4.158,0,6.248,3.007,6.248,6.176
		c0,3.637-2.772,6.284-6.248,6.284C60.717,12.741,58.306,9.878,58.306,6.637z M69.162,7.016c0-2.971-1.313-6.176-4.754-6.176
		c-1.873,0-4.304,1.278-4.304,5.221c0,2.665,1.295,6.122,4.845,6.122C67.108,12.183,69.162,10.562,69.162,7.016z"/>
	<path fill="#FFFFFF" d="M75.817,12.741c-1.512,0-2.467-0.469-2.809-0.666c-0.217-0.396-0.449-1.676-0.486-2.521
		c0.09-0.126,0.361-0.162,0.433-0.054c0.271,0.918,1.01,2.683,3.099,2.683c1.512,0,2.25-0.99,2.25-2.071
		c0-0.792-0.162-1.674-1.478-2.521l-1.709-1.117c-0.9-0.594-1.945-1.62-1.945-3.097c0-1.71,1.332-3.098,3.675-3.098
		c0.557,0,1.204,0.108,1.674,0.234c0.233,0.072,0.485,0.108,0.631,0.108c0.162,0.432,0.324,1.439,0.324,2.196
		c-0.072,0.108-0.361,0.162-0.451,0.055c-0.235-0.863-0.721-2.033-2.45-2.033c-1.765,0-2.144,1.17-2.144,1.999
		c0,1.044,0.865,1.8,1.531,2.214l1.439,0.9c1.135,0.701,2.252,1.747,2.252,3.457C79.653,11.391,78.16,12.741,75.817,12.741z"/>
	<path fill="#FFFFFF" d="M87.213,9.752c0,1.891,0.037,2.161,1.08,2.25l0.576,0.054c0.108,0.072,0.071,0.396-0.035,0.45
		c-1.026-0.036-1.64-0.054-2.358-0.054c-0.72,0-1.351,0.018-2.502,0.054c-0.107-0.054-0.146-0.36,0-0.45l0.647-0.054
		c1.024-0.09,1.114-0.36,1.114-2.25V1.704c0-0.559,0-0.576-0.539-0.576h-0.989c-0.774,0-1.767,0.036-2.215,0.45
		c-0.433,0.396-0.613,0.792-0.812,1.242c-0.145,0.108-0.396,0.019-0.469-0.126c0.289-0.811,0.559-1.963,0.686-2.683
		c0.054-0.036,0.287-0.054,0.343,0c0.106,0.576,0.7,0.559,1.528,0.559h7.293c0.974,0,1.135-0.035,1.404-0.504
		c0.09-0.035,0.287-0.018,0.324,0.055c-0.197,0.737-0.324,2.195-0.27,2.736C91.949,3,91.644,3,91.554,2.892
		c-0.056-0.45-0.181-1.116-0.451-1.313c-0.414-0.307-1.099-0.45-2.088-0.45h-1.277c-0.541,0-0.523,0.018-0.523,0.612L87.213,9.752
		L87.213,9.752z"/>
</g>
</svg>
